<svg xmlns="http://www.w3.org/2000/svg" xmlns:xlink="http://www.w3.org/1999/xlink" width="101" zoomAndPan="magnify" viewBox="0 0 75.75 518.250007" height="691" preserveAspectRatio="xMidYMid meet" version="1.0"><defs><clipPath id="6ffd04dfbc"><path d="M 0 441 L 3 441 L 3 517.023438 L 0 517.023438 Z M 0 441 " clip-rule="nonzero"/></clipPath><clipPath id="591c5ab651"><path d="M 0 514 L 75.5 514 L 75.5 517 L 0 517 Z M 0 514 " clip-rule="nonzero"/></clipPath><clipPath id="34cdf11746"><path d="M 0 0.480469 L 75.5 0.480469 L 75.5 3 L 0 3 Z M 0 0.480469 " clip-rule="nonzero"/></clipPath><clipPath id="fcd6185344"><path d="M 0 0.480469 L 3 0.480469 L 3 77 L 0 77 Z M 0 0.480469 " clip-rule="nonzero"/></clipPath></defs><g clip-path="url(#6ffd04dfbc)"><path stroke-linecap="butt" transform="matrix(0, -0.747533, 0.747533, 0, -0.0032765, 516.294713)" fill="none" stroke-linejoin="miter" d="M 0.00233337 1.498883 L 98.508663 1.498883 " stroke="#ffffff" stroke-width="3" stroke-opacity="1" stroke-miterlimit="4"/></g><g clip-path="url(#591c5ab651)"><path stroke-linecap="butt" transform="matrix(0.747533, 0, 0, 0.747533, 1.121299, 514.008554)" fill="none" stroke-linejoin="miter" d="M -0.000274805 1.498733 L 98.51128 1.498733 " stroke="#ffffff" stroke-width="3" stroke-opacity="1" stroke-miterlimit="4"/></g><g clip-path="url(#34cdf11746)"><path stroke-linecap="butt" transform="matrix(0.747533, 0, 0, 0.747533, 0.537238, 0.478642)" fill="none" stroke-linejoin="miter" d="M 0.00244041 1.502169 L 98.50877 1.502169 " stroke="#ffffff" stroke-width="3" stroke-opacity="1" stroke-miterlimit="4"/></g><g clip-path="url(#fcd6185344)"><path stroke-linecap="butt" transform="matrix(0, 0.747533, -0.747533, 0, 2.823381, 1.603218)" fill="none" stroke-linejoin="miter" d="M -0.00221414 1.498604 L 98.509341 1.498604 " stroke="#ffffff" stroke-width="3" stroke-opacity="1" stroke-miterlimit="4"/></g></svg>