<svg xmlns="http://www.w3.org/2000/svg" xmlns:xlink="http://www.w3.org/1999/xlink" width="102" zoomAndPan="magnify" viewBox="0 0 76.5 518.249984" height="691" preserveAspectRatio="xMidYMid meet" version="1.0"><defs><clipPath id="6394107f10"><path d="M 72 1.308594 L 75 1.308594 L 75 76 L 72 76 Z M 72 1.308594 " clip-rule="nonzero"/></clipPath><clipPath id="8c4f8b48e9"><path d="M 0 1.308594 L 75 1.308594 L 75 4 L 0 4 Z M 0 1.308594 " clip-rule="nonzero"/></clipPath><clipPath id="5f7e6ad543"><path d="M 0 513 L 76.003906 513 L 76.003906 516 L 0 516 Z M 0 513 " clip-rule="nonzero"/></clipPath></defs><g clip-path="url(#6394107f10)"><path stroke-linecap="butt" transform="matrix(0, 0.74513, -0.74513, 0, 74.516243, 1.313323)" fill="none" stroke-linejoin="miter" d="M -0.00110438 1.500149 L 98.508363 1.500149 " stroke="#ffffff" stroke-width="3" stroke-opacity="1" stroke-miterlimit="4"/></g><g clip-path="url(#8c4f8b48e9)"><path stroke-linecap="butt" transform="matrix(-0.74513, 0, 0, -0.74513, 73.395289, 3.592119)" fill="none" stroke-linejoin="miter" d="M 0.00101714 1.502372 L 98.510485 1.502372 " stroke="#ffffff" stroke-width="3" stroke-opacity="1" stroke-miterlimit="4"/></g><g clip-path="url(#5f7e6ad543)"><path stroke-linecap="butt" transform="matrix(-0.74513, 0, 0, -0.74513, 75.403246, 515.471249)" fill="none" stroke-linejoin="miter" d="M 0.00121082 1.49743 L 98.510678 1.49743 " stroke="#ffffff" stroke-width="3" stroke-opacity="1" stroke-miterlimit="4"/></g><path stroke-linecap="butt" transform="matrix(0, -0.74513, 0.74513, 0, 73.124453, 514.350287)" fill="none" stroke-linejoin="miter" d="M -0.00171138 1.500053 L 98.507756 1.500053 " stroke="#ffffff" stroke-width="3" stroke-opacity="1" stroke-miterlimit="4"/></svg>